<?xml version="1.0" encoding="utf-8"?><!-- Uploaded to: SVG Repo, www.svgrepo.com, Generator: SVG Repo Mixer Tools -->
<svg version="1.1" id="Uploaded to svgrepo.com" xmlns="http://www.w3.org/2000/svg" xmlns:xlink="http://www.w3.org/1999/xlink" 
	 width="800px" height="800px" viewBox="0 0 32 32" xml:space="preserve">
<style type="text/css">
	.feather_een{fill:#0B1719;}
</style>
<path class="feather_een" d="M28,9.5C28,3.552,25.196,0,20.5,0c-3.114,0-5.377,1.581-6.561,4.368C13.197,4.125,12.382,4,11.5,4
	C6.804,4,4,7.552,4,13.5c0,4.363,2.949,7.496,6.033,8.299l-0.431,0.646c-0.205,0.308-0.224,0.701-0.049,1.026
	C9.727,23.798,10.065,24,10.434,24h0.505c-0.124,0.527-0.439,0.856-0.824,1.239C9.593,25.762,9,26.354,9,27.5
	c0,1.152,0.599,1.764,1.127,2.303C10.615,30.301,11,30.693,11,31.5c0,0.276,0.224,0.5,0.5,0.5s0.5-0.224,0.5-0.5
	c0-1.215-0.643-1.87-1.159-2.397C10.371,28.623,10,28.244,10,27.5c0-0.731,0.363-1.094,0.822-1.553
	c0.451-0.45,0.993-0.998,1.138-1.947h0.606c0.369,0,0.707-0.202,0.881-0.528c0.174-0.325,0.156-0.719-0.049-1.026l-0.431-0.646
	c2.039-0.531,4.014-2.085,5.121-4.335c0.312,0.133,0.627,0.252,0.945,0.335l-0.431,0.646c-0.205,0.308-0.224,0.701-0.049,1.026
	C18.727,19.798,19.065,20,19.434,20h0.606c0.145,0.949,0.687,1.497,1.138,1.947C21.637,22.406,22,22.769,22,23.5
	c0,0.744-0.371,1.123-0.841,1.603C20.643,25.63,20,26.285,20,27.5c0,0.276,0.224,0.5,0.5,0.5s0.5-0.224,0.5-0.5
	c0-0.807,0.385-1.199,0.873-1.697C22.401,25.264,23,24.652,23,23.5c0-1.146-0.593-1.738-1.115-2.261
	c-0.385-0.384-0.7-0.712-0.824-1.239h0.505c0.369,0,0.707-0.202,0.881-0.528c0.174-0.325,0.156-0.719-0.049-1.026l-0.431-0.646
	C25.051,16.996,28,13.863,28,9.5z M10.434,23l1.066-1.6l1.066,1.6H10.434z M12.07,20.957l-0.57,0.076l-0.57-0.076
	C8.468,20.631,5,18.101,5,13.5C5,10.944,5.633,5,11.5,5s6.5,5.944,6.5,8.5C18,18.101,14.532,20.631,12.07,20.957z M19.434,19
	l1.066-1.6l1.066,1.6H19.434z M21.07,16.957l-0.57,0.076l-0.57-0.076c-0.454-0.06-0.945-0.221-1.44-0.431
	C18.815,15.606,19,14.591,19,13.5c0-4.347-1.503-7.407-4.143-8.743C15.694,2.751,17.32,1,20.5,1C26.367,1,27,6.944,27,9.5
	C27,14.101,23.532,16.631,21.07,16.957z M9,7C7.895,7,7,7.895,7,9s0.895,2,2,2c1.105,0,2-0.895,2-2S10.105,7,9,7z M9,10
	c-0.551,0-1-0.449-1-1s0.449-1,1-1s1,0.449,1,1S9.551,10,9,10z"/>
</svg>